<?xml version="1.0" encoding="utf-8"?>
<svg version="1.1" xmlns="http://www.w3.org/2000/svg" xmlns:xlink="http://www.w3.org/1999/xlink" x="0px" y="0px" viewBox="0 0 1000 1000" xml:space="preserve">
<path d="M860,437.2c-71.7,0-130-58.3-130-129.9c0-71.7,58.3-130,130-130c71.7,0,130,58.3,130,130C990,378.9,931.7,437.2,860,437.2z M860,228.6c-43.4,0-78.7,35.3-78.7,78.7c0,43.3,35.3,78.6,78.7,78.6c43.4,0,78.7-35.3,78.7-78.6C938.7,263.9,903.4,228.6,860,228.6z M832.7,155.7V79.1c0-14.2,11.5-25.7,25.7-25.7c14.2,0,25.7,11.5,25.7,25.7v76.4c-8-1.3-16-2.5-24.3-2.5C850.5,153,841.5,154.2,832.7,155.7z M499.2,822.8c-71.7,0-130-58.3-130-130c0-71.7,58.3-130,130-130c71.7,0,130,58.3,130,130C629.1,764.5,570.8,822.8,499.2,822.8z M499.2,614.1c-43.4,0-78.7,35.3-78.7,78.7c0,43.4,35.3,78.7,78.7,78.7c43.4,0,78.7-35.3,78.7-78.7C577.8,649.4,542.5,614.1,499.2,614.1z M473.5,540.3V79.1c0-14.2,11.5-25.7,25.7-25.7c14.2,0,25.7,11.5,25.7,25.7V540c-8-1.3-16-2.5-24.3-2.5C491.3,537.6,482.3,538.7,473.5,540.3z M140,565.3c-71.7,0-130-58.3-130-130c0-71.7,58.3-130,130-130c71.7,0,129.9,58.3,129.9,130C269.9,507,211.7,565.3,140,565.3z M140,356.7c-43.4,0-78.7,35.3-78.7,78.7c0,43.4,35.3,78.7,78.7,78.7c43.3,0,78.6-35.3,78.6-78.7C218.6,392,183.3,356.7,140,356.7z M114.3,286.2V79.1c0-14.2,11.5-25.7,25.7-25.7c14.2,0,25.7,11.5,25.7,25.7v206.8c-8-1.3-16-2.5-24.3-2.5C132.1,283.4,123.1,284.6,114.3,286.2z M165.6,593.2v327.7c0,14.2-11.5,25.7-25.7,25.7c-14.2,0-25.7-11.5-25.7-25.7V593c8.8,1.6,17.8,2.7,27,2.7C149.6,595.7,157.7,594.5,165.6,593.2z M524.8,847.4v73.5c0,14.2-11.5,25.7-25.7,25.7c-14.2,0-25.7-11.5-25.7-25.7v-73.8c8.8,1.6,17.8,2.7,27,2.7C508.8,849.8,516.9,848.6,524.8,847.4z M884,462.8v458.1c0,14.2-11.5,25.7-25.7,25.7c-14.2,0-25.7-11.5-25.7-25.7V462.5c8.8,1.5,17.8,2.7,27,2.7C868.1,465.3,876.1,464,884,462.8z"/>
</svg>